<svg xmlns="http://www.w3.org/2000/svg" xmlns:xlink="http://www.w3.org/1999/xlink" xml:space="preserve" version="1.1" style="shape-rendering:geometricPrecision;text-rendering:geometricPrecision;image-rendering:optimizeQuality;" viewBox="0 0 847 1058.75" x="0px" y="0px" fill-rule="evenodd" clip-rule="evenodd"><defs><style type="text/css">
   
    .fil0 {fill:black}
   
  </style></defs><g><path class="fil0" d="M119 40l304 304 305 -304c52,-53 132,26 79,79l-304 304 304 305c53,52 -27,132 -79,79l-305 -304 -304 304c-53,53 -132,-27 -79,-79l304 -305 -304 -304c-53,-53 26,-132 79,-79zm-16 16c-31,-32 -79,16 -47,47l320 320 -320 321c-32,31 16,78 47,47l320 -320 321 320c31,31 78,-16 47,-47l-320 -321 320 -320c31,-31 -16,-79 -47,-47l-321 320 -320 -320z"/></g><text x="0" y="862" fill="#000000" font-size="5px" font-weight="bold" font-family="'Helvetica Neue', Helvetica, Arial-Unicode, Arial, Sans-serif">Created by Imam</text><text x="0" y="867" fill="#000000" font-size="5px" font-weight="bold" font-family="'Helvetica Neue', Helvetica, Arial-Unicode, Arial, Sans-serif">from the Noun Project</text></svg>